<svg width="64" height="65" viewBox="0 0 64 65" fill="none" xmlns="http://www.w3.org/2000/svg">
<rect y="0.689941" width="64" height="64" rx="32" fill="#E5E7EB"/>
<path d="M44.8001 47.09V43.89C44.8001 42.1926 44.1258 40.5647 42.9256 39.3645C41.7253 38.1643 40.0975 37.49 38.4001 37.49H25.6001C23.9027 37.49 22.2748 38.1643 21.0746 39.3645C19.8744 40.5647 19.2001 42.1926 19.2001 43.89V47.09" stroke="#111827" stroke-width="2.56" stroke-linecap="round" stroke-linejoin="round"/>
<path d="M32.0001 31.09C35.5347 31.09 38.4001 28.2247 38.4001 24.69C38.4001 21.1554 35.5347 18.29 32.0001 18.29C28.4655 18.29 25.6001 21.1554 25.6001 24.69C25.6001 28.2247 28.4655 31.09 32.0001 31.09Z" stroke="#111827" stroke-width="2.56" stroke-linecap="round" stroke-linejoin="round"/>
</svg>
