<svg width="60" height="26" viewBox="0 0 60 26" fill="none" xmlns="http://www.w3.org/2000/svg">
<path d="M2.5 20.2443V5.69886H5.57528V17.7088H11.8111V20.2443H2.5Z" fill="#111827"/>
<path d="M26.6477 12.9716C26.6477 14.5578 26.3471 15.9072 25.7457 17.0199C25.1491 18.1326 24.3348 18.9825 23.3026 19.5696C22.2751 20.152 21.1198 20.4432 19.8366 20.4432C18.544 20.4432 17.384 20.1496 16.3565 19.5625C15.3291 18.9754 14.517 18.1255 13.9205 17.0128C13.3239 15.9001 13.0256 14.553 13.0256 12.9716C13.0256 11.3854 13.3239 10.036 13.9205 8.9233C14.517 7.81061 15.3291 6.96307 16.3565 6.38068C17.384 5.79356 18.544 5.5 19.8366 5.5C21.1198 5.5 22.2751 5.79356 23.3026 6.38068C24.3348 6.96307 25.1491 7.81061 25.7457 8.9233C26.3471 10.036 26.6477 11.3854 26.6477 12.9716ZM23.5298 12.9716C23.5298 11.9441 23.3759 11.0777 23.0682 10.3722C22.7652 9.66667 22.3366 9.13163 21.7827 8.76705C21.2287 8.40246 20.58 8.22017 19.8366 8.22017C19.0933 8.22017 18.4446 8.40246 17.8906 8.76705C17.3366 9.13163 16.9058 9.66667 16.598 10.3722C16.295 11.0777 16.1435 11.9441 16.1435 12.9716C16.1435 13.9991 16.295 14.8655 16.598 15.571C16.9058 16.2765 17.3366 16.8116 17.8906 17.1761C18.4446 17.5407 19.0933 17.723 19.8366 17.723C20.58 17.723 21.2287 17.5407 21.7827 17.1761C22.3366 16.8116 22.7652 16.2765 23.0682 15.571C23.3759 14.8655 23.5298 13.9991 23.5298 12.9716Z" fill="#111827"/>
<path d="M38.5707 10.4006C38.4712 10.0549 38.3316 9.74953 38.1516 9.48438C37.9717 9.21449 37.7515 8.98722 37.4911 8.80256C37.2354 8.61316 36.9419 8.46875 36.6104 8.36932C36.2837 8.26989 35.9215 8.22017 35.5238 8.22017C34.7804 8.22017 34.127 8.40483 33.5636 8.77415C33.0049 9.14347 32.5692 9.68087 32.2567 10.3864C31.9442 11.0871 31.788 11.9441 31.788 12.9574C31.788 13.9706 31.9419 14.8324 32.2496 15.5426C32.5574 16.2528 32.993 16.795 33.5565 17.169C34.1199 17.5384 34.7852 17.723 35.5522 17.723C36.2482 17.723 36.8424 17.5999 37.3349 17.3537C37.832 17.1027 38.2108 16.75 38.4712 16.2955C38.7364 15.8409 38.869 15.3035 38.869 14.6832L39.494 14.7756H35.744V12.4602H41.8306V14.2926C41.8306 15.571 41.5607 16.6695 41.021 17.5881C40.4812 18.5019 39.7378 19.2074 38.7908 19.7045C37.8439 20.197 36.7596 20.4432 35.538 20.4432C34.1744 20.4432 32.9764 20.1425 31.9442 19.5412C30.912 18.9351 30.1071 18.0758 29.5295 16.9631C28.9566 15.8456 28.6701 14.5199 28.6701 12.9858C28.6701 11.8068 28.8406 10.7557 29.1815 9.83239C29.5271 8.90436 30.0101 8.11837 30.6303 7.47443C31.2506 6.83049 31.9727 6.34044 32.7965 6.00426C33.6204 5.66809 34.5129 5.5 35.4741 5.5C36.2979 5.5 37.065 5.62074 37.7752 5.86222C38.4854 6.09896 39.1152 6.43513 39.6644 6.87074C40.2184 7.30634 40.6706 7.82481 41.021 8.42614C41.3713 9.02273 41.5962 9.68087 41.6957 10.4006H38.5707Z" fill="#111827"/>
<path d="M57.5071 12.9716C57.5071 14.5578 57.2064 15.9072 56.6051 17.0199C56.0085 18.1326 55.1941 18.9825 54.1619 19.5696C53.1345 20.152 51.9792 20.4432 50.696 20.4432C49.4034 20.4432 48.2434 20.1496 47.2159 19.5625C46.1884 18.9754 45.3764 18.1255 44.7798 17.0128C44.1832 15.9001 43.8849 14.553 43.8849 12.9716C43.8849 11.3854 44.1832 10.036 44.7798 8.9233C45.3764 7.81061 46.1884 6.96307 47.2159 6.38068C48.2434 5.79356 49.4034 5.5 50.696 5.5C51.9792 5.5 53.1345 5.79356 54.1619 6.38068C55.1941 6.96307 56.0085 7.81061 56.6051 8.9233C57.2064 10.036 57.5071 11.3854 57.5071 12.9716ZM54.3892 12.9716C54.3892 11.9441 54.2353 11.0777 53.9276 10.3722C53.6245 9.66667 53.196 9.13163 52.642 8.76705C52.0881 8.40246 51.4394 8.22017 50.696 8.22017C49.9527 8.22017 49.304 8.40246 48.75 8.76705C48.196 9.13163 47.7652 9.66667 47.4574 10.3722C47.1544 11.0777 47.0028 11.9441 47.0028 12.9716C47.0028 13.9991 47.1544 14.8655 47.4574 15.571C47.7652 16.2765 48.196 16.8116 48.75 17.1761C49.304 17.5407 49.9527 17.723 50.696 17.723C51.4394 17.723 52.0881 17.5407 52.642 17.1761C53.196 16.8116 53.6245 16.2765 53.9276 15.571C54.2353 14.8655 54.3892 13.9991 54.3892 12.9716Z" fill="#111827"/>
</svg>
